<svg width="39" height="14" viewBox="0 0 39 14" fill="none" xmlns="http://www.w3.org/2000/svg">
<path d="M10.084 10.66V13H0.327984V0.399999H9.84999V2.74H3.22598V5.476H9.07598V7.744H3.22598V10.66H10.084ZM18.399 13.216C17.115 13.216 15.951 12.94 14.907 12.388C13.875 11.824 13.059 11.05 12.459 10.066C11.871 9.07 11.577 7.948 11.577 6.7C11.577 5.452 11.871 4.336 12.459 3.352C13.059 2.356 13.875 1.582 14.907 1.03C15.951 0.466 17.121 0.184 18.417 0.184C19.509 0.184 20.493 0.376 21.369 0.76C22.257 1.144 23.001 1.696 23.601 2.416L21.729 4.144C20.877 3.16 19.821 2.668 18.561 2.668C17.781 2.668 17.085 2.842 16.473 3.19C15.861 3.526 15.381 4 15.033 4.612C14.697 5.224 14.529 5.92 14.529 6.7C14.529 7.48 14.697 8.176 15.033 8.788C15.381 9.4 15.861 9.88 16.473 10.228C17.085 10.564 17.781 10.732 18.561 10.732C19.821 10.732 20.877 10.234 21.729 9.238L23.601 10.966C23.001 11.698 22.257 12.256 21.369 12.64C20.481 13.024 19.491 13.216 18.399 13.216ZM31.4085 13.216C30.1005 13.216 28.9185 12.934 27.8625 12.37C26.8185 11.806 25.9965 11.032 25.3965 10.048C24.8085 9.052 24.5145 7.936 24.5145 6.7C24.5145 5.464 24.8085 4.354 25.3965 3.37C25.9965 2.374 26.8185 1.594 27.8625 1.03C28.9185 0.466 30.1005 0.184 31.4085 0.184C32.7165 0.184 33.8925 0.466 34.9365 1.03C35.9805 1.594 36.8025 2.374 37.4025 3.37C38.0025 4.354 38.3025 5.464 38.3025 6.7C38.3025 7.936 38.0025 9.052 37.4025 10.048C36.8025 11.032 35.9805 11.806 34.9365 12.37C33.8925 12.934 32.7165 13.216 31.4085 13.216ZM31.4085 10.732C32.1525 10.732 32.8245 10.564 33.4245 10.228C34.0245 9.88 34.4925 9.4 34.8285 8.788C35.1765 8.176 35.3505 7.48 35.3505 6.7C35.3505 5.92 35.1765 5.224 34.8285 4.612C34.4925 4 34.0245 3.526 33.4245 3.19C32.8245 2.842 32.1525 2.668 31.4085 2.668C30.6645 2.668 29.9925 2.842 29.3925 3.19C28.7925 3.526 28.3185 4 27.9705 4.612C27.6345 5.224 27.4665 5.92 27.4665 6.7C27.4665 7.48 27.6345 8.176 27.9705 8.788C28.3185 9.4 28.7925 9.88 29.3925 10.228C29.9925 10.564 30.6645 10.732 31.4085 10.732Z" fill="#212121"/>
</svg>
